<svg xmlns="http://www.w3.org/2000/svg" viewBox="0 0 1920 1080" preserveAspectRatio="xMidYMid slice" role="img" aria-label="Stylized tropical island menu background">
  <defs>
    <linearGradient id="sky" x1="0" y1="0" x2="0" y2="1">
      <stop offset="0%" stop-color="#b6f1ff"/>
      <stop offset="38%" stop-color="#84dbf9"/>
      <stop offset="100%" stop-color="#46aee2"/>
    </linearGradient>

    <linearGradient id="ocean" x1="0" y1="0" x2="0" y2="1">
      <stop offset="0%" stop-color="#66d4ee"/>
      <stop offset="28%" stop-color="#38afd7"/>
      <stop offset="100%" stop-color="#1f739f"/>
    </linearGradient>

    <radialGradient id="sunWash" cx="50%" cy="4%" r="62%">
      <stop offset="0%" stop-color="#fff7d8" stop-opacity="0.55"/>
      <stop offset="46%" stop-color="#fff7d8" stop-opacity="0.2"/>
      <stop offset="100%" stop-color="#fff7d8" stop-opacity="0"/>
    </radialGradient>

    <linearGradient id="sand" x1="0" y1="0" x2="0" y2="1">
      <stop offset="0%" stop-color="#f2e2aa"/>
      <stop offset="100%" stop-color="#d7be7c"/>
    </linearGradient>

    <linearGradient id="grass" x1="0" y1="0" x2="0" y2="1">
      <stop offset="0%" stop-color="#4fd388"/>
      <stop offset="52%" stop-color="#2ea96d"/>
      <stop offset="100%" stop-color="#1f7a4f"/>
    </linearGradient>

    <linearGradient id="rock" x1="0" y1="0" x2="0" y2="1">
      <stop offset="0%" stop-color="#9a7f67"/>
      <stop offset="100%" stop-color="#6d5644"/>
    </linearGradient>

    <symbol id="cloud" viewBox="0 0 240 86">
      <ellipse cx="62" cy="48" rx="54" ry="26" fill="#ffffff" fill-opacity="0.96"/>
      <ellipse cx="118" cy="40" rx="58" ry="30" fill="#ffffff" fill-opacity="0.96"/>
      <ellipse cx="174" cy="50" rx="50" ry="24" fill="#ffffff" fill-opacity="0.94"/>
      <ellipse cx="118" cy="58" rx="106" ry="20" fill="#ffffff" fill-opacity="0.94"/>
    </symbol>

    <symbol id="palm" viewBox="-60 -170 120 190">
      <path d="M -6 12 C -14 -24 -12 -68 -2 -110 C 2 -127 6 -140 8 -156 C 8 -162 2 -164 -3 -160 C -13 -149 -24 -125 -30 -104 C -41 -66 -42 -25 -33 12 Z" fill="#7c4d29"/>
      <path d="M -2 12 C -9 -26 -8 -64 2 -101 C 10 -132 22 -152 34 -164 C 39 -167 44 -164 43 -158 C 38 -134 30 -112 24 -93 C 14 -62 12 -23 18 12 Z" fill="#966238"/>
      <g transform="translate(4,-150)">
        <path d="M0 0 C -8 -5 -34 -8 -52 -2 C -36 0 -20 8 -9 18 C -4 13 -1 7 0 0 Z" fill="#1f9251"/>
        <path d="M0 0 C -6 -9 -30 -22 -50 -24 C -34 -16 -20 -2 -10 15 C -4 10 -1 5 0 0 Z" fill="#2da65f"/>
        <path d="M0 0 C -1 -10 -14 -35 -28 -50 C -20 -34 -16 -15 -15 8 C -8 6 -3 3 0 0 Z" fill="#259e5a"/>
        <path d="M0 0 C 8 -5 34 -8 52 -2 C 36 0 20 8 9 18 C 4 13 1 7 0 0 Z" fill="#1f9251"/>
        <path d="M0 0 C 6 -9 30 -22 50 -24 C 34 -16 20 -2 10 15 C 4 10 1 5 0 0 Z" fill="#2da65f"/>
        <path d="M0 0 C 1 -10 14 -35 28 -50 C 20 -34 16 -15 15 8 C 8 6 3 3 0 0 Z" fill="#259e5a"/>
        <path d="M0 0 C -2 -7 -1 -28 6 -44 C 5 -28 8 -12 14 2 C 8 3 3 2 0 0 Z" fill="#2eb86a"/>
        <ellipse cx="0" cy="2" rx="4" ry="3" fill="#186f3f"/>
      </g>
    </symbol>
  </defs>

  <rect width="1920" height="1080" fill="url(#sky)"/>
  <ellipse cx="960" cy="22" rx="980" ry="300" fill="url(#sunWash)"/>

  <g opacity="0.78">
    <use href="#cloud" x="120" y="120" width="280" height="100"/>
    <use href="#cloud" x="520" y="88" width="340" height="118"/>
    <use href="#cloud" x="1180" y="110" width="360" height="126"/>
    <use href="#cloud" x="1560" y="170" width="250" height="90"/>
  </g>

  <rect y="286" width="1920" height="794" fill="url(#ocean)"/>

  <g opacity="0.35" stroke="#e9fbff" fill="none" stroke-linecap="round">
    <path d="M 0 358 C 190 346 414 348 630 362 C 856 377 1062 382 1294 366 C 1512 352 1726 350 1920 362" stroke-width="2.4"/>
    <path d="M 0 446 C 220 434 430 438 638 450 C 862 464 1088 470 1300 458 C 1526 444 1740 444 1920 458" stroke-width="2.1"/>
    <path d="M 0 560 C 212 548 420 554 648 566 C 880 580 1108 588 1330 574 C 1556 560 1752 560 1920 574" stroke-width="1.7" opacity="0.8"/>
    <path d="M 0 704 C 210 694 430 700 662 714 C 884 728 1110 736 1336 724 C 1566 710 1764 710 1920 722" stroke-width="1.5" opacity="0.66"/>
    <path d="M 0 870 C 220 862 450 868 688 882 C 920 896 1138 904 1370 892 C 1600 880 1788 880 1920 892" stroke-width="1.4" opacity="0.58"/>
  </g>

  <g transform="translate(968 274)">
    <path d="M -84 34 C -72 -8 -52 -50 -26 -84 C -8 -106 18 -124 40 -126 C 60 -128 74 -108 72 -80 C 70 -40 56 14 36 54 C 16 92 -12 120 -42 128 C -62 134 -84 118 -90 90 C -96 68 -92 52 -84 34 Z" fill="url(#rock)"/>
    <path d="M -26 -66 C -2 -94 26 -106 42 -98 C 56 -92 60 -70 56 -44 C 42 -60 18 -66 -10 -60 Z" fill="#af9478" opacity="0.75"/>
    <path d="M -72 86 C -40 74 -2 74 30 86 C 50 94 64 106 68 120 C 34 136 -2 140 -42 136 C -62 132 -78 122 -86 108 Z" fill="url(#sand)"/>
    <path d="M -52 90 C -20 80 8 80 34 90 C 50 96 58 106 58 114 C 20 126 -14 126 -48 122 C -58 116 -60 104 -52 90 Z" fill="url(#grass)"/>
    <use href="#palm" x="-14" y="82" width="88" height="154"/>
    <use href="#palm" x="18" y="84" width="72" height="128"/>
  </g>

  <g transform="translate(250 760)">
    <path d="M -212 58 C -182 -18 -86 -58 30 -54 C 136 -50 214 -8 228 56 C 240 110 180 164 62 178 C -46 192 -162 166 -206 116 C -220 100 -222 80 -212 58 Z" fill="url(#sand)"/>
    <path d="M -154 54 C -124 6 -62 -22 16 -22 C 90 -20 152 8 170 50 C 158 112 96 144 8 146 C -76 146 -140 112 -154 54 Z" fill="url(#grass)"/>
    <path d="M -152 96 C -96 78 -28 74 40 82 C 94 88 132 104 150 126 C 106 150 44 156 -24 152 C -80 148 -124 128 -152 96 Z" fill="#1f7f50" opacity="0.26"/>
    <ellipse cx="-148" cy="102" rx="24" ry="11" fill="#2f9a61"/>
    <ellipse cx="-102" cy="116" rx="30" ry="13" fill="#2a9059"/>
    <ellipse cx="-54" cy="100" rx="20" ry="10" fill="#2f9a61"/>
    <ellipse cx="102" cy="106" rx="26" ry="12" fill="#2d955d"/>
    <use href="#palm" x="-70" y="44" width="128" height="226"/>
    <use href="#palm" x="-20" y="30" width="112" height="198"/>
    <use href="#palm" x="42" y="42" width="102" height="180"/>
  </g>

  <g transform="translate(1670 770)">
    <path d="M -228 62 C -196 -14 -106 -56 8 -58 C 126 -60 212 -18 234 48 C 258 122 196 176 82 194 C -42 214 -180 184 -222 124 C -236 104 -238 82 -228 62 Z" fill="url(#sand)"/>
    <path d="M -170 56 C -142 10 -76 -20 4 -22 C 82 -24 146 6 176 44 C 174 112 108 152 18 156 C -74 160 -146 122 -170 56 Z" fill="url(#grass)"/>
    <path d="M -168 102 C -110 80 -38 76 36 86 C 94 94 136 112 158 138 C 116 164 50 170 -24 164 C -92 158 -142 138 -168 102 Z" fill="#1f7f50" opacity="0.26"/>
    <ellipse cx="-126" cy="96" rx="30" ry="12" fill="#2b925b"/>
    <ellipse cx="-74" cy="116" rx="24" ry="10" fill="#2a8d57"/>
    <ellipse cx="108" cy="110" rx="34" ry="13" fill="#2c935c"/>
    <use href="#palm" x="-66" y="34" width="132" height="232"/>
    <use href="#palm" x="-8" y="44" width="110" height="194"/>
    <use href="#palm" x="62" y="56" width="94" height="164"/>
  </g>

  <g transform="translate(146 476) scale(0.72)">
    <path d="M -118 30 C -94 -20 -28 -44 48 -42 C 126 -40 180 -10 190 34 C 198 70 168 102 102 114 C 22 128 -72 116 -110 84 C -126 72 -128 48 -118 30 Z" fill="url(#sand)"/>
    <path d="M -84 30 C -58 -2 -16 -20 34 -20 C 80 -18 118 -2 132 30 C 120 74 80 94 30 94 C -24 92 -66 74 -84 30 Z" fill="url(#grass)"/>
    <use href="#palm" x="-14" y="20" width="86" height="150"/>
  </g>

  <g transform="translate(1792 486) scale(0.68)">
    <path d="M -118 30 C -94 -20 -28 -44 48 -42 C 126 -40 180 -10 190 34 C 198 70 168 102 102 114 C 22 128 -72 116 -110 84 C -126 72 -128 48 -118 30 Z" fill="url(#sand)"/>
    <path d="M -84 30 C -58 -2 -16 -20 34 -20 C 80 -18 118 -2 132 30 C 120 74 80 94 30 94 C -24 92 -66 74 -84 30 Z" fill="url(#grass)"/>
    <use href="#palm" x="-14" y="20" width="86" height="150"/>
  </g>

  <g opacity="0.24" stroke="#ecfdff" fill="none" stroke-linecap="round">
    <path d="M 314 836 C 500 816 696 816 890 832" stroke-width="2"/>
    <path d="M 1032 836 C 1232 818 1436 820 1634 842" stroke-width="2"/>
    <path d="M 100 560 C 252 546 392 546 532 558" stroke-width="1.5"/>
    <path d="M 1388 560 C 1542 546 1680 548 1822 560" stroke-width="1.5"/>
  </g>

  <ellipse cx="960" cy="558" rx="420" ry="206" fill="#e6f9ff" opacity="0.12"/>
</svg>
